<svg width="205" height="30" viewBox="0 0 205 30" fill="none" xmlns="http://www.w3.org/2000/svg">
<path d="M0.539062 0.5625H11.1445C13.319 0.5625 15.1875 0.888021 16.75 1.53906C18.3255 2.1901 19.5365 3.15365 20.3828 4.42969C21.2292 5.70573 21.6523 7.27474 21.6523 9.13672C21.6523 10.6602 21.3919 11.9688 20.8711 13.0625C20.3633 14.1432 19.6406 15.0482 18.7031 15.7773C17.7786 16.4935 16.6914 17.0664 15.4414 17.4961L13.5859 18.4727H4.36719L4.32812 13.9023H11.1836C12.2122 13.9023 13.0651 13.7201 13.7422 13.3555C14.4193 12.9909 14.9271 12.4831 15.2656 11.832C15.6172 11.181 15.793 10.4258 15.793 9.56641C15.793 8.65495 15.6237 7.86719 15.2852 7.20312C14.9466 6.53906 14.4323 6.03125 13.7422 5.67969C13.0521 5.32812 12.1862 5.15234 11.1445 5.15234H6.39844V29H0.539062V0.5625ZM16.4375 29L9.95312 16.3242L16.1445 16.2852L22.707 28.7266V29H16.4375ZM45.2461 24.4297V29H30.1094V24.4297H45.2461ZM32.0234 0.5625V29H26.1641V0.5625H32.0234ZM43.2734 12.1445V16.5977H30.1094V12.1445H43.2734ZM45.2266 0.5625V5.15234H30.1094V0.5625H45.2266ZM48.5859 26.2852C48.5859 25.4518 48.8724 24.7552 49.4453 24.1953C50.0312 23.6354 50.806 23.3555 51.7695 23.3555C52.7331 23.3555 53.5013 23.6354 54.0742 24.1953C54.6602 24.7552 54.9531 25.4518 54.9531 26.2852C54.9531 27.1185 54.6602 27.8151 54.0742 28.375C53.5013 28.9349 52.7331 29.2148 51.7695 29.2148C50.806 29.2148 50.0312 28.9349 49.4453 28.375C48.8724 27.8151 48.5859 27.1185 48.5859 26.2852ZM79.3477 24.4297V29H64.2109V24.4297H79.3477ZM66.125 0.5625V29H60.2656V0.5625H66.125ZM77.375 12.1445V16.5977H64.2109V12.1445H77.375ZM79.3281 0.5625V5.15234H64.2109V0.5625H79.3281ZM93.0195 23.0625L99.7188 0.5625H106.242L96.3398 29H92.043L93.0195 23.0625ZM86.8477 0.5625L93.5273 23.0625L94.543 29H90.207L80.3633 0.5625H86.8477ZM127.98 24.4297V29H112.844V24.4297H127.98ZM114.758 0.5625V29H108.898V0.5625H114.758ZM126.008 12.1445V16.5977H112.844V12.1445H126.008ZM127.961 0.5625V5.15234H112.844V0.5625H127.961ZM154.543 0.5625V29H148.684L137.258 9.9375V29H131.398V0.5625H137.258L148.703 19.6445V0.5625H154.543ZM171.77 0.5625V29H165.93V0.5625H171.77ZM180.52 0.5625V5.15234H157.316V0.5625H180.52ZM198.352 21.5586C198.352 21.0508 198.273 20.5951 198.117 20.1914C197.974 19.7747 197.701 19.3971 197.297 19.0586C196.893 18.707 196.327 18.362 195.598 18.0234C194.868 17.6849 193.924 17.3333 192.766 16.9688C191.477 16.5521 190.253 16.0833 189.094 15.5625C187.948 15.0417 186.932 14.4362 186.047 13.7461C185.174 13.043 184.484 12.2292 183.977 11.3047C183.482 10.3802 183.234 9.30599 183.234 8.08203C183.234 6.89714 183.495 5.82292 184.016 4.85938C184.536 3.88281 185.266 3.04948 186.203 2.35938C187.141 1.65625 188.247 1.11589 189.523 0.738281C190.812 0.360677 192.225 0.171875 193.762 0.171875C195.858 0.171875 197.688 0.549479 199.25 1.30469C200.812 2.0599 202.023 3.09505 202.883 4.41016C203.755 5.72526 204.191 7.22917 204.191 8.92188H198.371C198.371 8.08854 198.195 7.35938 197.844 6.73438C197.505 6.09635 196.984 5.59505 196.281 5.23047C195.591 4.86589 194.719 4.68359 193.664 4.68359C192.648 4.68359 191.802 4.83984 191.125 5.15234C190.448 5.45182 189.94 5.86198 189.602 6.38281C189.263 6.89062 189.094 7.46354 189.094 8.10156C189.094 8.58333 189.211 9.01953 189.445 9.41016C189.693 9.80078 190.057 10.1654 190.539 10.5039C191.021 10.8424 191.613 11.1615 192.316 11.4609C193.02 11.7604 193.833 12.0534 194.758 12.3398C196.307 12.8086 197.668 13.3359 198.84 13.9219C200.025 14.5078 201.014 15.1654 201.809 15.8945C202.603 16.6237 203.202 17.4505 203.605 18.375C204.009 19.2995 204.211 20.3477 204.211 21.5195C204.211 22.7565 203.97 23.8633 203.488 24.8398C203.007 25.8164 202.31 26.6432 201.398 27.3203C200.487 27.9974 199.4 28.5117 198.137 28.8633C196.874 29.2148 195.461 29.3906 193.898 29.3906C192.492 29.3906 191.105 29.2083 189.738 28.8438C188.371 28.4661 187.128 27.8997 186.008 27.1445C184.901 26.3893 184.016 25.4258 183.352 24.2539C182.688 23.082 182.355 21.6953 182.355 20.0938H188.234C188.234 20.9792 188.371 21.7279 188.645 22.3398C188.918 22.9518 189.302 23.4466 189.797 23.8242C190.305 24.2018 190.904 24.4753 191.594 24.6445C192.297 24.8138 193.065 24.8984 193.898 24.8984C194.914 24.8984 195.747 24.7552 196.398 24.4688C197.062 24.1823 197.551 23.7852 197.863 23.2773C198.189 22.7695 198.352 22.1966 198.352 21.5586Z" fill="black"/>
</svg>
